<?xml version="1.0" encoding="utf-8"?>
<!-- Generator: Adobe Illustrator 15.1.0, SVG Export Plug-In . SVG Version: 6.00 Build 0)  -->
<!DOCTYPE svg PUBLIC "-//W3C//DTD SVG 1.1//EN" "http://www.w3.org/Graphics/SVG/1.1/DTD/svg11.dtd">
<svg version="1.1" id="Camada_1" xmlns="http://www.w3.org/2000/svg" xmlns:xlink="http://www.w3.org/1999/xlink" x="0px" y="0px"
	 width="800px" height="600px" viewBox="0 0 800 600" enable-background="new 0 0 800 600" xml:space="preserve">
<g id="XMLID_2_">
	<g>
		<linearGradient id="SVGID_1_" gradientUnits="userSpaceOnUse" x1="196.3799" y1="292.2021" x2="604.21" y2="292.2021">
			<stop  offset="0" style="stop-color:#FFFFFF"/>
			<stop  offset="1" style="stop-color:#000000"/>
		</linearGradient>
		<path fill="url(#SVGID_1_)" d="M604.21,148.21c-13.91,12.83-28.59,24.5-43.08,36.36c-14.1,11.54-28.43,25.92-54.3,24.82
			c13.43,18.88,27.42,43.79,28.92,76.18c1.84,39.71-13.71,71.831-32.46,92.93c6.78,9.91,16.42,17.03,23.61,26.55
			c3.54-3.27,6.29-7.319,9.439-10.97c-5.359-1.68-10.17-3.9-15.939-5.19c17.739-14.21,34.699-29.18,49.58-46.18
			c-0.58,27.521,0.109,56.29-7.08,77.35c-2.681-3.93-5.37-7.84-7.67-12.13c-3.9,4.66-7.19,9.91-10.631,15.011
			c13.851,16.09,28.79,31.1,43.091,46.75c-8.2,7.949-17.021,15.29-25.381,23.09c-13.43-14.19-26.579-28.641-40.14-42.71
			c-16.77,15.1-34.76,30.899-59.61,39.25c-12.77,4.29-27.3,5.71-38.359,10.96c-11.45,5.439-15.891,15.91-24.79,24.239
			c-6.5-8.06-13.96-20.979-24.79-24.81c-18.93-6.7-38.43-9.05-55.48-18.47c-16.14-8.92-29.23-18.98-41.31-32.33
			c-14.23,12.649-25.1,28.56-38.96,41.56c-8.08-7.3-16.54-14.22-24.79-21.35c13.23-16.12,27.69-31.03,41.32-46.76
			c-2.52-5.42-6.75-9.181-9.45-14.431c-3.55,3.46-5,8.96-8.85,12.13c-6.18-22.05-6.98-49.35-7.08-77.35
			c15.03,16.86,32.34,31.48,49.58,46.18c-5.53,1.141-9.32,3.971-15.35,4.62c2.67,1.811,5.12,9.67,7.67,9.811
			c1.9,0.1,9.62-10.32,11.81-12.7c0.74-0.811,11.71-11.26,11.8-12.7c0.13-1.97-9.21-12.08-11.8-16.16
			c-12.06-18.99-20.92-44.05-19.48-76.19c1.51-33.57,14.03-54.76,29.51-76.18c-32.27-0.25-46.49-19.38-64.92-34.06
			c-10.86-8.65-20.94-17.79-32.46-25.97c18.31-28.26,38.94-54.27,67.87-72.15c15.33,17,29.93,34.25,45.45,51.95
			c10.81,12.33,23.95,23.85,22.42,48.48c14.83-7.63,30.4-14.53,50.76-16.74c0-6.15,0-12.31,0-18.47
			c-11.18-1.37-22.45-2.66-33.64-4.04c0-7.88,0-15.77,0-23.66c7.9-0.16,13.64-2.44,21.84-2.31c-1.76-6.12-5.31-11.07-5.31-19.04
			c0-18.71,15.56-32.93,33.05-33.48c24.23-0.76,45.73,27.69,29.51,51.94c7.38,1.06,14.52,2.35,22.43,2.89c0,7.89,0,15.78,0,23.66
			c-11.42,0.96-21.31,3.41-33.64,3.47c0,6.15,0,12.31,0,18.47c19.93,3.4,37.08,9.52,51.939,17.89
			c-1.939-27.91,15.49-41.46,28.33-55.99c13.13-14.86,25.79-29.8,38.95-45.02C565.09,94.89,585.61,120.61,604.21,148.21z
			 M558.18,143.01c-4.85-7.57-10.42-14.44-17.71-19.62c-5.52,5.99-11.34,13.59-18.3,21.35c-7.97,8.9-20.51,16.69-18.88,31.75
			c13.64,0.34,19.5-4.04,26.56-9.81C539.68,158.63,548.51,150.12,558.18,143.01z M499.93,306.35c0.46-7.56,1.07-14.31,0.59-21.93
			c-3.09-48.6-44.21-88.02-92.67-91.19c-40.939-2.69-66.359,13.3-84.399,34.05c4.07,9.49,7.03,20.06,11.22,29.44
			c10.26-5.82,22.6-14.8,37.18-21.36c13.62-6.13,32.25-11.68,49.58-9.24c8.601,1.22,13.86,7.89,11.801,15.59
			c11.5-4.92,20.229-12.54,33.649-15.59C464.9,265.58,484.56,283.87,499.93,306.35z M503.88,430.44
			c-8.689-9.971-17.31-20.011-27.149-28.851c-15.41,10.9-33.971,18.73-57.25,21.93c5.18,16.301,13.859,36.921,36.59,34.631
			C475.95,456.14,491.55,439.2,503.88,430.44z M499.75,309.82c-16.34,5.93-43.91,19.13-63.16,27.12c-7.62,3.17-16.97,6.8-24.2,5.77
			c-11.359-1.61-12.939-13.39-12.39-25.97c-12.99,6.16-25.52,15.819-32.46,25.97c5.91,16.16,11.83,32.3,17.7,48.49
			C452.69,395.37,488.19,360.29,499.75,309.82z M443.26,258.1l4.53-4.01l-5.94-1.16l-2.42-5.54l-2.93,5.29l-6.02,0.58l4.119,4.43
			l-1.3,5.91l5.48-2.56l5.22,3.07L443.26,258.1z M422.26,258.99l5.23-1.41l-4.311-3.3l0.28-5.41l-4.47,3.08l-5.061-1.93l1.551,5.19
			l-3.41,4.22l5.42,0.14l2.97,4.54L422.26,258.99z M405,260l-6.48-10.87l5.28-11.5l-12.35,2.8l-9.31-8.57l-1.14,12.6l-11.03,6.21
			l11.63,4.98l2.49,12.41l8.34-9.53L405,260z M369.9,444.3c4.34-5.87,8.18-11.89,10.03-20.78c-24.53-3.329-43.17-12.43-59.61-23.67
			c-3.89,5.19-7.55,8.23-13.57,15.011c-1.3,1.449-11.94,12.609-11.81,13.85c0.14,1.28,7.19,5.69,10.04,8.08
			c9.66,8.15,22.89,18.24,34.82,20.78C356.21,461.07,364.22,451.96,369.9,444.3z M367.36,268.43l4.87-0.71l-3.53-3.44l0.84-4.85
			l-4.36,2.29l-4.36-2.29l0.84,4.85l-3.53,3.44l4.87,0.71l2.18,4.41L367.36,268.43z M352.9,273.26l2.71-4.42l-5.16,0.53l-3.37-3.94
			L346,270.5l-4.79,1.98l4.49,2.6l0.4,5.17l3.86-3.46L355,278L352.9,273.26z M365.18,385.42c-17.89-47.53-34.83-95.99-53.71-142.56
			c-6.34,12.4-11.9,25.06-12.99,40.98C294.93,335.65,327.13,371.93,365.18,385.42z M297.3,177.07c1.75-13.03-4.29-16.68-10.03-23.09
			c-8.74-9.76-19.61-22.96-27.15-30.59c-6.51,5.95-13.14,11.77-17.71,19.62c6.22,5.14,12.75,10.06,19.48,15.59
			C271.93,166.83,279.47,177.59,297.3,177.07z"/>
		<path fill="#FF1F37" d="M500.52,284.42c0.48,7.62-0.13,14.37-0.59,21.93c-15.37-22.479-35.029-40.77-33.05-80.229
			c-13.42,3.05-22.149,10.67-33.649,15.59c2.06-7.7-3.2-14.37-11.801-15.59c-17.33-2.44-35.959,3.11-49.58,9.24
			c-14.58,6.56-26.92,15.54-37.18,21.36c-4.19-9.38-7.15-19.95-11.22-29.44c18.04-20.75,43.46-36.74,84.399-34.05
			C456.31,196.4,497.43,235.82,500.52,284.42z"/>
		<path fill="#BF0036" d="M436.59,336.94c19.25-7.99,46.82-21.19,63.16-27.12c-11.56,50.47-47.06,85.55-114.51,81.38
			c-5.87-16.19-11.79-32.33-17.7-48.49c6.94-10.15,19.47-19.81,32.46-25.97c-0.55,12.58,1.03,24.359,12.39,25.97
			C419.62,343.74,428.97,340.11,436.59,336.94z"/>
		<polygon fill="#FFF93F" points="447.79,254.09 443.26,258.1 444,264.11 438.78,261.04 433.3,263.6 434.6,257.69 430.48,253.26 
			436.5,252.68 439.43,247.39 441.85,252.93 		"/>
		<polygon fill="#FFEB3F" points="427.49,257.58 422.26,258.99 420.46,264.11 417.49,259.57 412.07,259.43 415.48,255.21 
			413.93,250.02 418.99,251.95 423.46,248.87 423.18,254.28 		"/>
		<polygon fill="#FFE81F" points="398.52,249.13 405,260 392.43,258.53 384.09,268.06 381.6,255.65 369.97,250.67 381,244.46 
			382.14,231.86 391.45,240.43 403.8,237.63 		"/>
		<polygon fill="#F6FF3F" points="372.23,267.72 367.36,268.43 365.18,272.84 363,268.43 358.13,267.72 361.66,264.28 
			360.82,259.43 365.18,261.72 369.54,259.43 368.7,264.28 		"/>
		<polygon fill="#DDDF00" points="355.61,268.84 352.9,273.26 355,278 349.96,276.79 346.1,280.25 345.7,275.08 341.21,272.48 
			346,270.5 347.08,265.43 350.45,269.37 		"/>
		<path fill="#FF1F3F" d="M311.47,242.86c18.88,46.57,35.82,95.03,53.71,142.56c-38.05-13.49-70.25-49.77-66.7-101.58
			C299.57,267.92,305.13,255.26,311.47,242.86z"/>
	</g>
	<g>
		<path fill="none" stroke="#FFFFFF" d="M503.88,430.44c-12.33,8.76-27.93,25.699-47.81,27.71c-22.73,2.29-31.41-18.33-36.59-34.631
			c23.279-3.199,41.84-11.029,57.25-21.93C486.57,410.43,495.19,420.47,503.88,430.44z"/>
		<path fill="none" stroke="#FFFFFF" d="M379.93,423.52c-1.85,8.891-5.69,14.91-10.03,20.78c-5.68,7.66-13.69,16.771-30.1,13.271
			c-11.93-2.54-25.16-12.63-34.82-20.78c-2.85-2.39-9.9-6.8-10.04-8.08c-0.13-1.24,10.51-12.4,11.81-13.85
			c6.02-6.78,9.68-9.82,13.57-15.011C336.76,411.09,355.4,420.19,379.93,423.52z"/>
		<path fill="none" stroke="#343434" d="M499.75,309.82c-11.56,50.47-47.06,85.55-114.51,81.38c-5.87-16.19-11.79-32.33-17.7-48.49
			c6.94-10.15,19.47-19.81,32.46-25.97c-0.55,12.58,1.03,24.359,12.39,25.97c7.23,1.03,16.58-2.6,24.2-5.77
			C455.84,328.95,483.41,315.75,499.75,309.82z"/>
		<path fill="none" stroke="#2D2D2D" d="M311.47,242.86c18.88,46.57,35.82,95.03,53.71,142.56c-38.05-13.49-70.25-49.77-66.7-101.58
			C299.57,267.92,305.13,255.26,311.47,242.86z"/>
		<path fill="none" stroke="#2525A0" d="M499.93,306.35c-15.37-22.479-35.029-40.77-33.05-80.229
			c-13.42,3.05-22.149,10.67-33.649,15.59c2.06-7.7-3.2-14.37-11.801-15.59c-17.33-2.44-35.959,3.11-49.58,9.24
			c-14.58,6.56-26.92,15.54-37.18,21.36c-4.19-9.38-7.15-19.95-11.22-29.44c18.04-20.75,43.46-36.74,84.399-34.05
			c48.46,3.17,89.58,42.59,92.67,91.19C501,292.04,500.39,298.79,499.93,306.35z"/>
		<path fill="none" stroke="#4351FF" d="M558.18,143.01c-9.67,7.11-18.5,15.62-28.33,23.67c-7.06,5.77-12.92,10.15-26.56,9.81
			c-1.63-15.06,10.91-22.85,18.88-31.75c6.96-7.76,12.78-15.36,18.3-21.35C547.76,128.57,553.33,135.44,558.18,143.01z"/>
		<path fill="none" stroke="#6974FF" d="M297.3,177.07c-17.83,0.52-25.37-10.24-35.41-18.47c-6.73-5.53-13.26-10.45-19.48-15.59
			c4.57-7.85,11.2-13.67,17.71-19.62c7.54,7.63,18.41,20.83,27.15,30.59C293.01,160.39,299.05,164.04,297.3,177.07z"/>
		<path fill="none" stroke="#4351FF" d="M428.33,111.84c7.38,1.06,14.52,2.35,22.43,2.89c0,7.89,0,15.78,0,23.66
			c-11.42,0.96-21.31,3.41-33.64,3.47c0,6.15,0,12.31,0,18.47c19.93,3.4,37.08,9.52,51.939,17.89
			c-1.939-27.91,15.49-41.46,28.33-55.99c13.13-14.86,25.79-29.8,38.95-45.02c28.75,17.68,49.271,43.4,67.87,71
			c-13.91,12.83-28.59,24.5-43.08,36.36c-14.1,11.54-28.43,25.92-54.3,24.82c13.43,18.88,27.42,43.79,28.92,76.18
			c1.84,39.71-13.71,71.831-32.46,92.93c6.78,9.91,16.42,17.03,23.61,26.55c3.54-3.27,6.29-7.319,9.439-10.97
			c-5.359-1.68-10.17-3.9-15.939-5.19c17.739-14.21,34.699-29.18,49.58-46.18c-0.58,27.521,0.109,56.29-7.08,77.35
			c-2.681-3.93-5.37-7.84-7.67-12.13c-3.9,4.66-7.19,9.91-10.631,15.011c13.851,16.09,28.79,31.1,43.091,46.75
			c-8.2,7.949-17.021,15.29-25.381,23.09c-13.43-14.19-26.579-28.641-40.14-42.71c-16.77,15.1-34.76,30.899-59.61,39.25
			c-12.77,4.29-27.3,5.71-38.359,10.96c-11.45,5.439-15.891,15.91-24.79,24.239c-6.5-8.06-13.96-20.979-24.79-24.81
			c-18.93-6.7-38.43-9.05-55.48-18.47c-16.14-8.92-29.23-18.98-41.31-32.33c-14.23,12.649-25.1,28.56-38.96,41.56
			c-8.08-7.3-16.54-14.22-24.79-21.35c13.23-16.12,27.69-31.03,41.32-46.76c-2.52-5.42-6.75-9.181-9.45-14.431
			c-3.55,3.46-5,8.96-8.85,12.13c-6.18-22.05-6.98-49.35-7.08-77.35c15.03,16.86,32.34,31.48,49.58,46.18
			c-5.53,1.141-9.32,3.971-15.35,4.62c2.67,1.811,5.12,9.67,7.67,9.811c1.9,0.1,9.62-10.32,11.81-12.7
			c0.74-0.811,11.71-11.26,11.8-12.7c0.13-1.97-9.21-12.08-11.8-16.16c-12.06-18.99-20.92-44.05-19.48-76.19
			c1.51-33.57,14.03-54.76,29.51-76.18c-32.27-0.25-46.49-19.38-64.92-34.06c-10.86-8.65-20.94-17.79-32.46-25.97
			c18.31-28.26,38.94-54.27,67.87-72.15c15.33,17,29.93,34.25,45.45,51.95c10.81,12.33,23.95,23.85,22.42,48.48
			c14.83-7.63,30.4-14.53,50.76-16.74c0-6.15,0-12.31,0-18.47c-11.18-1.37-22.45-2.66-33.64-4.04c0-7.88,0-15.77,0-23.66
			c7.9-0.16,13.64-2.44,21.84-2.31c-1.76-6.12-5.31-11.07-5.31-19.04c0-18.71,15.56-32.93,33.05-33.48
			C423.05,59.14,444.55,87.59,428.33,111.84z"/>
		<path fill="none" stroke="#000000" d="M134.1,34.5c180.8,0,361.6,0,542.41,0c0,177,0,354.01,0,531c-181,0-362.01,0-543,0
			c0-176.43,0-352.84,0-529.27C133.46,35.41,133.41,34.6,134.1,34.5z"/>
		<polygon fill="none" stroke="#0C0808" points="405,260 392.43,258.53 384.09,268.06 381.6,255.65 369.97,250.67 381,244.46 
			382.14,231.86 391.45,240.43 403.8,237.63 398.52,249.13 		"/>
		<polygon fill="none" stroke="#171717" points="355,278 349.96,276.79 346.1,280.25 345.7,275.08 341.21,272.48 346,270.5 
			347.08,265.43 350.45,269.37 355.61,268.84 352.9,273.26 		"/>
		<polygon fill="none" stroke="#101010" points="365.18,272.84 363,268.43 358.13,267.72 361.66,264.28 360.82,259.43 
			365.18,261.72 369.54,259.43 368.7,264.28 372.23,267.72 367.36,268.43 		"/>
		<polygon fill="none" stroke="#101010" points="412.07,259.43 415.48,255.21 413.93,250.02 418.99,251.95 423.46,248.87 
			423.18,254.28 427.49,257.58 422.26,258.99 420.46,264.11 417.49,259.57 		"/>
		<polygon fill="none" stroke="#080808" points="444,264.11 438.78,261.04 433.3,263.6 434.6,257.69 430.48,253.26 436.5,252.68 
			439.43,247.39 441.85,252.93 447.79,254.09 443.26,258.1 		"/>
	</g>
</g>
</svg>
